<?xml version="1.0" standalone="no"?>
<!DOCTYPE svg PUBLIC "-//W3C//DTD SVG 20010904//EN"
 "http://www.w3.org/TR/2001/REC-SVG-20010904/DTD/svg10.dtd">
<svg version="1.0" xmlns="http://www.w3.org/2000/svg"
 width="512.000000pt" height="512.000000pt" viewBox="0 0 512.000000 512.000000"
 preserveAspectRatio="xMidYMid meet">

<g transform="translate(0.000000,512.000000) scale(0.100000,-0.100000)"
fill="#000000" stroke="none">
<path d="M2370 5114 c-19 -2 -78 -9 -130 -15 -791 -90 -1522 -586 -1924 -1305
-146 -262 -252 -588 -297 -914 -18 -125 -18 -515 0 -640 105 -762 511 -1409
1146 -1826 609 -400 1377 -517 2090 -317 929 260 1646 1043 1819 1987 156 845
-103 1682 -705 2285 -399 398 -879 639 -1449 726 -100 15 -472 28 -550 19z
m395 -304 c498 -46 977 -263 1348 -610 303 -284 542 -695 640 -1101 49 -201
61 -309 61 -539 0 -230 -12 -338 -61 -539 -78 -325 -246 -653 -471 -921 -296
-354 -732 -624 -1183 -733 -201 -49 -309 -61 -539 -61 -231 0 -338 12 -540 61
-396 96 -810 334 -1087 626 -456 480 -682 1125 -623 1772 54 583 345 1143 790
1518 464 390 1069 582 1665 527z"/>
<path d="M1800 3579 c-243 -13 -463 -39 -710 -85 -158 -29 -179 -36 -215 -74
-72 -75 -35 -211 65 -241 32 -10 60 -7 177 15 341 65 607 90 973 89 346 0 591
-21 915 -79 326 -58 720 -175 1038 -308 87 -36 171 -66 188 -66 51 0 105 35
128 83 26 54 26 80 0 134 -24 50 -55 68 -262 152 -711 288 -1522 422 -2297
380z"/>
<path d="M1805 2819 c-267 -17 -692 -82 -755 -114 -52 -27 -80 -71 -80 -126 0
-58 19 -100 57 -127 48 -33 77 -34 214 -7 740 144 1508 96 2214 -140 88 -29
210 -75 270 -100 194 -83 238 -86 303 -22 60 60 55 154 -10 213 -72 67 -582
244 -914 318 -414 92 -898 132 -1299 105z"/>
<path d="M1810 2034 c-19 -2 -84 -9 -145 -15 -119 -12 -286 -39 -403 -65 -87
-19 -136 -56 -153 -114 -17 -55 -4 -104 36 -145 50 -49 84 -52 244 -21 75 15
188 33 251 42 164 21 566 29 742 15 365 -31 738 -122 1067 -260 70 -30 136
-51 157 -51 154 0 203 201 68 277 -131 75 -530 208 -787 262 -272 57 -421 72
-747 76 -162 2 -311 1 -330 -1z"/>
</g>
</svg>
